<svg id="Layer_1" xmlns="http://www.w3.org/2000/svg" version="1.1" viewBox="450 500 1100 1100">
  <defs>
    <style>
      .st0{fill:#231f20;}
    </style>
  </defs>
  <g>
    <path class="st0" d="M1239.7,972.3c-15.3-66.2-115.2-105.5-182.2-41.9-47.7,45.2-69.7,103.9-104,159.9-23.4,38.2-59.4,92.8-121.4,127.4,35.8-2.4,108.2-36.5,108.2-36.5-55,61.7-223.6,123.2-360.7-1.9-13.2-12-25.8-34.5-45.7-24.5-23.7,11.9-15.5,40-5.4,58.6,58.2,108.1,214.8,160.3,338,157,245.9-6.6,401.2-277.7,373.4-398.2ZM1073.5,963.9c-6.2,5.7-14.9-3.2-9.1-9.3,5.3-5.6,11.1-10.8,17.3-15.4,22.4-16.7,50.2-26.2,78.2-26.5-33.3,12-59.4,26.4-86.4,51.2Z"/>
    <path class="st0" d="M1239.7,972.3c-7.5-32.7-35.8-58.8-70.5-69.3,24.3,14.2,39.8,38.1,41.4,62.6,7.6,117.8-131,324.7-246.7,358.2,0,0,68.4-44.4,110-105-137.6,134-369.4,164.8-517.6,10.4-24-25-34.6-63.1-8.8-76.4-4.2-.9-8.7-.4-13.7,2.1-23.7,11.9-15.5,40-5.4,58.6,58.2,108.1,214.8,160.3,338,157,245.9-6.6,401.2-277.7,373.4-398.2Z"/>
    <path class="st0" d="M1241,932.7c2.5-7.8,3.6-40.2-23.6-61.7,36.6-55,51-141.2-1.6-205.3-10.4-3.6-30-3.1-37.9,16.2,53.5,59.7,53.6,103.9,22.9,180-23.8-7.9-54.4-.9-64.2,6.5-1.8,1.4-2.7,3.6-2.7,6.1-.2,6.7,5.2,12.2,11.9,12.5,51,2.1,77.7,29,87.7,46.5,1.8,3.2,6.5,2.7,7.6-.7Z"/>
  </g>
</svg>