<svg id="Layer_1" xmlns="http://www.w3.org/2000/svg" version="1.1" viewBox="0 0 2048 2048">
  <defs>
    <style>
      .st0 { fill: #be1e2d; }
      .st1 { fill: #ed1c24; }
      .st3 { fill: #006838; }
    </style>
  </defs>
  <g>
    <path class="st1" d="M1884.2,915.1c-37-160.2-278.7-255.3-441-101.4-115.4,109.5-168.7,251.4-251.8,387.1-56.6,92.5-143.8,224.6-293.9,308.4,86.6-5.8,261.8-88.3,261.8-88.3-133.2,149.4-541.2,298.3-873-4.6-31.9-29.1-62.4-83.4-110.6-59.2-57.4,28.8-37.4,96.7-13.2,141.7,140.9,261.6,519.9,388,818.1,380,595.1-16,970.9-672,903.6-963.7ZM1482,894.9c-14.9,13.8-36-7.7-22.1-22.5,12.8-13.6,26.8-26.2,41.8-37.4,54.3-40.5,121.6-63.3,189.4-64.2-80.7,29-143.7,63.9-209.1,124Z"/>
    <path class="st0" d="M1884.2,915.1c-18.3-79.2-86.6-142.4-170.5-167.6,58.9,34.4,96.3,92.1,100.1,151.4,18.5,285.1-317.1,785.9-597,866.9,0,0,165.6-107.5,266.2-254.2-333,324.3-893.9,398.9-1252.8,25.3-58.1-60.5-83.8-152.8-21.4-184.8-10.2-2.2-21.2-1-33.3,5-57.4,28.8-37.4,96.7-13.2,141.7,140.9,261.6,519.9,388,818.1,380,595.1-16,970.9-672,903.6-963.7Z"/>
    <path class="st3" d="M1887.3,819.3c6-18.8,8.6-97.2-57.2-149.4,88.5-133,123.4-341.8-3.8-496.8-25.2-8.6-72.5-7.5-91.7,39.2,129.5,144.4,129.7,251.5,55.4,435.6-57.7-19.1-131.6-2.2-155.4,15.9-4.4,3.4-6.4,8.7-6.6,14.7-.6,16.2,12.7,29.5,28.8,30.2,123.4,5.1,188.2,70.1,212.2,112.6,4.3,7.6,15.7,6.6,18.3-1.8Z"/>
  </g>
</svg>